# MagicaVoxel @ Ephtracy

# material
mtllib dog.mtl
usemtl palette

# normals
vn -1 0 0
vn 1 0 0
vn 0 -1 0
vn 0 1 0
vn 0 0 -1
vn 0 0 1

# texcoords
vt 0.0214844 0.5
vt 0.552734 0.5
vt 0.841797 0.5
vt 0.990234 0.5
vt 0.994141 0.5

# verts
v 1 0 10
v 1 2 10
v 1 6 10
v 1 8 10
v 1 2 12
v 1 6 12
v 1 8 12
v 1 9 12
v 1 10 13
v 1 15 13
v 1 0 19
v 1 9 19
v 1 10 19
v 1 15 19
v 2 9 13
v 2 10 13
v 2 0 19
v 2 9 19
v 2 10 19
v 2 15 19
v 2 0 20
v 2 9 20
v 2 10 20
v 2 15 20
v 7 0 10
v 7 2 10
v 7 6 10
v 7 8 10
v 7 0 12
v 7 2 12
v 7 6 12
v 7 8 12
v 3 0 10
v 3 2 10
v 3 6 10
v 3 8 10
v 3 0 12
v 3 2 12
v 3 6 12
v 3 8 12
v 8 9 13
v 8 10 13
v 8 0 19
v 8 9 19
v 8 10 19
v 8 15 19
v 8 0 20
v 8 9 20
v 8 10 20
v 8 15 20
v 9 0 10
v 9 2 10
v 9 6 10
v 9 8 10
v 9 2 12
v 9 6 12
v 9 8 12
v 9 9 12
v 9 10 13
v 9 15 13
v 9 0 19
v 9 9 19
v 9 10 19
v 9 15 19
v 1 0 10
v 1 0 19
v 2 0 19
v 2 0 20
v 3 0 10
v 3 0 12
v 4 0 15
v 4 0 16
v 6 0 15
v 6 0 16
v 7 0 10
v 7 0 12
v 8 0 19
v 8 0 20
v 9 0 10
v 9 0 19
v 1 6 10
v 1 6 12
v 3 6 10
v 3 6 12
v 7 6 10
v 7 6 12
v 9 6 10
v 9 6 12
v 1 10 13
v 1 10 19
v 2 10 13
v 2 10 19
v 2 10 20
v 8 10 13
v 8 10 19
v 8 10 20
v 9 10 13
v 9 10 19
v 1 2 10
v 1 2 12
v 3 2 10
v 3 2 12
v 7 2 10
v 7 2 12
v 9 2 10
v 9 2 12
v 1 8 10
v 1 8 12
v 3 8 10
v 3 8 12
v 7 8 10
v 7 8 12
v 9 8 10
v 9 8 12
v 1 9 12
v 1 9 19
v 2 9 13
v 2 9 19
v 2 9 20
v 8 9 13
v 8 9 19
v 8 9 20
v 9 9 12
v 9 9 19
v 1 15 13
v 1 15 19
v 2 15 13
v 2 15 19
v 2 15 20
v 3 15 16
v 3 15 17
v 4 15 14
v 4 15 15
v 4 15 16
v 4 15 17
v 6 15 14
v 6 15 15
v 6 15 16
v 6 15 17
v 7 15 16
v 7 15 17
v 8 15 13
v 8 15 19
v 8 15 20
v 9 15 13
v 9 15 19
v 1 0 10
v 3 0 10
v 7 0 10
v 9 0 10
v 1 2 10
v 3 2 10
v 7 2 10
v 9 2 10
v 1 6 10
v 3 6 10
v 7 6 10
v 9 6 10
v 1 8 10
v 3 8 10
v 7 8 10
v 9 8 10
v 3 0 12
v 7 0 12
v 1 2 12
v 3 2 12
v 7 2 12
v 9 2 12
v 1 6 12
v 3 6 12
v 7 6 12
v 9 6 12
v 1 8 12
v 3 8 12
v 7 8 12
v 9 8 12
v 1 9 12
v 9 9 12
v 2 9 13
v 8 9 13
v 1 10 13
v 2 10 13
v 4 10 13
v 6 10 13
v 8 10 13
v 9 10 13
v 4 11 13
v 6 11 13
v 1 15 13
v 2 15 13
v 8 15 13
v 9 15 13
v 1 0 19
v 2 0 19
v 8 0 19
v 9 0 19
v 1 9 19
v 2 9 19
v 8 9 19
v 9 9 19
v 1 10 19
v 2 10 19
v 8 10 19
v 9 10 19
v 1 15 19
v 2 15 19
v 8 15 19
v 9 15 19
v 2 0 20
v 8 0 20
v 2 9 20
v 8 9 20
v 2 10 20
v 8 10 20
v 2 15 20
v 8 15 20

# faces
f 5/5/1 2/5/1 1/5/1
f 6/5/1 4/5/1 3/5/1
f 7/5/1 4/5/1 6/5/1
f 11/5/1 5/5/1 1/5/1
f 11/5/1 6/5/1 5/5/1
f 11/5/1 8/5/1 7/5/1
f 11/5/1 7/5/1 6/5/1
f 12/5/1 8/5/1 11/5/1
f 13/4/1 10/4/1 9/4/1
f 14/4/1 10/4/1 13/4/1
f 18/3/1 16/3/1 15/3/1
f 19/3/1 16/3/1 18/3/1
f 21/5/1 18/5/1 17/5/1
f 22/5/1 18/5/1 21/5/1
f 23/4/1 20/4/1 19/4/1
f 24/4/1 20/4/1 23/4/1
f 29/5/1 26/5/1 25/5/1
f 30/5/1 26/5/1 29/5/1
f 31/5/1 28/5/1 27/5/1
f 32/5/1 28/5/1 31/5/1
f 33/5/2 34/5/2 37/5/2
f 37/5/2 34/5/2 38/5/2
f 35/5/2 36/5/2 39/5/2
f 39/5/2 36/5/2 40/5/2
f 41/3/2 42/3/2 44/3/2
f 44/3/2 42/3/2 45/3/2
f 43/5/2 44/5/2 47/5/2
f 47/5/2 44/5/2 48/5/2
f 45/4/2 46/4/2 49/4/2
f 49/4/2 46/4/2 50/4/2
f 51/5/2 52/5/2 55/5/2
f 53/5/2 54/5/2 56/5/2
f 56/5/2 54/5/2 57/5/2
f 51/5/2 55/5/2 61/5/2
f 55/5/2 56/5/2 61/5/2
f 57/5/2 58/5/2 61/5/2
f 56/5/2 57/5/2 61/5/2
f 61/5/2 58/5/2 62/5/2
f 59/4/2 60/4/2 63/4/2
f 63/4/2 60/4/2 64/4/2
f 67/5/3 66/5/3 65/5/3
f 69/5/3 67/5/3 65/5/3
f 69/5/3 68/5/3 67/5/3
f 70/5/3 68/5/3 69/5/3
f 71/5/3 68/5/3 70/5/3
f 72/5/3 68/5/3 71/5/3
f 73/5/3 71/5/3 70/5/3
f 73/4/3 72/4/3 71/4/3
f 74/5/3 68/5/3 72/5/3
f 74/4/3 72/4/3 73/4/3
f 76/5/3 73/5/3 70/5/3
f 76/5/3 74/5/3 73/5/3
f 77/5/3 68/5/3 74/5/3
f 77/5/3 76/5/3 75/5/3
f 77/5/3 74/5/3 76/5/3
f 78/5/3 68/5/3 77/5/3
f 79/5/3 77/5/3 75/5/3
f 80/5/3 77/5/3 79/5/3
f 83/5/3 82/5/3 81/5/3
f 84/5/3 82/5/3 83/5/3
f 87/5/3 86/5/3 85/5/3
f 88/5/3 86/5/3 87/5/3
f 91/4/3 90/4/3 89/4/3
f 92/4/3 90/4/3 91/4/3
f 95/4/3 93/4/3 92/4/3
f 96/4/3 93/4/3 95/4/3
f 97/4/3 95/4/3 94/4/3
f 98/4/3 95/4/3 97/4/3
f 99/5/4 100/5/4 101/5/4
f 101/5/4 100/5/4 102/5/4
f 103/5/4 104/5/4 105/5/4
f 105/5/4 104/5/4 106/5/4
f 107/5/4 108/5/4 109/5/4
f 109/5/4 108/5/4 110/5/4
f 111/5/4 112/5/4 113/5/4
f 113/5/4 112/5/4 114/5/4
f 115/5/4 116/5/4 117/5/4
f 117/5/4 116/5/4 118/5/4
f 115/5/4 117/5/4 120/5/4
f 118/5/4 119/5/4 121/5/4
f 121/5/4 119/5/4 122/5/4
f 115/5/4 120/5/4 123/5/4
f 120/5/4 121/5/4 123/5/4
f 123/5/4 121/5/4 124/5/4
f 125/4/4 126/4/4 127/4/4
f 127/4/4 126/4/4 128/4/4
f 127/5/4 128/5/4 130/5/4
f 130/5/4 128/5/4 131/5/4
f 127/5/4 130/5/4 132/5/4
f 132/5/4 130/5/4 133/5/4
f 130/2/4 131/2/4 134/2/4
f 133/5/4 130/5/4 134/5/4
f 131/5/4 128/5/4 135/5/4
f 134/2/4 131/2/4 135/2/4
f 132/3/4 133/3/4 136/3/4
f 127/5/4 132/5/4 136/5/4
f 133/5/4 134/5/4 137/5/4
f 136/3/4 133/3/4 137/3/4
f 134/5/4 135/5/4 137/5/4
f 137/5/4 135/5/4 138/5/4
f 135/5/4 128/5/4 139/5/4
f 138/5/4 135/5/4 139/5/4
f 137/5/4 138/5/4 140/5/4
f 136/5/4 137/5/4 140/5/4
f 138/2/4 139/2/4 140/2/4
f 139/5/4 128/5/4 141/5/4
f 140/2/4 139/2/4 141/2/4
f 127/5/4 136/5/4 142/5/4
f 136/5/4 140/5/4 142/5/4
f 140/5/4 141/5/4 142/5/4
f 128/4/4 129/4/4 143/4/4
f 142/5/4 141/5/4 143/5/4
f 141/5/4 128/5/4 143/5/4
f 143/4/4 129/4/4 144/4/4
f 142/4/4 143/4/4 145/4/4
f 145/4/4 143/4/4 146/4/4
f 151/5/5 148/5/5 147/5/5
f 152/5/5 148/5/5 151/5/5
f 153/5/5 150/5/5 149/5/5
f 154/5/5 150/5/5 153/5/5
f 159/5/5 156/5/5 155/5/5
f 160/5/5 156/5/5 159/5/5
f 161/5/5 158/5/5 157/5/5
f 162/5/5 158/5/5 161/5/5
f 166/5/5 164/5/5 163/5/5
f 167/5/5 164/5/5 166/5/5
f 169/5/5 166/5/5 165/5/5
f 169/5/5 168/5/5 167/5/5
f 169/5/5 167/5/5 166/5/5
f 170/5/5 168/5/5 169/5/5
f 171/5/5 168/5/5 170/5/5
f 172/5/5 168/5/5 171/5/5
f 174/5/5 171/5/5 170/5/5
f 175/5/5 171/5/5 174/5/5
f 177/5/5 174/5/5 173/5/5
f 177/5/5 176/5/5 175/5/5
f 177/5/5 175/5/5 174/5/5
f 178/5/5 176/5/5 177/5/5
f 182/3/5 180/3/5 179/3/5
f 183/3/5 180/3/5 182/3/5
f 184/3/5 180/3/5 183/3/5
f 185/3/5 180/3/5 184/3/5
f 187/5/5 183/5/5 182/5/5
f 187/1/5 184/1/5 183/1/5
f 188/5/5 185/5/5 184/5/5
f 188/1/5 184/1/5 187/1/5
f 189/4/5 182/4/5 181/4/5
f 190/5/5 187/5/5 182/5/5
f 190/4/5 182/4/5 189/4/5
f 190/5/5 188/5/5 187/5/5
f 191/5/5 185/5/5 188/5/5
f 191/5/5 188/5/5 190/5/5
f 191/4/5 186/4/5 185/4/5
f 192/4/5 186/4/5 191/4/5
f 193/5/6 194/5/6 197/5/6
f 197/5/6 194/5/6 198/5/6
f 195/5/6 196/5/6 199/5/6
f 199/5/6 196/5/6 200/5/6
f 198/3/6 199/3/6 202/3/6
f 202/3/6 199/3/6 203/3/6
f 201/4/6 202/4/6 205/4/6
f 205/4/6 202/4/6 206/4/6
f 203/4/6 204/4/6 207/4/6
f 207/4/6 204/4/6 208/4/6
f 209/5/6 210/5/6 211/5/6
f 211/5/6 210/5/6 212/5/6
f 213/4/6 214/4/6 215/4/6
f 215/4/6 214/4/6 216/4/6
