# MagicaVoxel @ Ephtracy

# material
mtllib FFF.mtl
usemtl palette

# normals
vn -1 0 0
vn 1 0 0
vn 0 0 1
vn 0 0 -1
vn 0 -1 0
vn 0 1 0

# texcoords
vt 0.0605469 0.5
vt 0.373047 0.5
vt 0.669922 0.5
vt 0.833984 0.5
vt 0.845703 0.5
vt 0.947266 0.5
vt 0.958984 0.5

# verts
v -5.5 11 2
v -5.5 11 -1
v -5.5 12 2
v -5.5 12 -1
v -5.5 13 2
v -5.5 13 -1
v -5.5 14 2
v -5.5 14 -1
v -5.5 15 5
v -5.5 15 2
v -5.5 15 -1
v -5.5 15 -4
v -5.5 22 5
v -5.5 22 -4
v -4.5 0 5
v -4.5 0 4
v -4.5 0 -4
v -4.5 1 5
v -4.5 1 4
v -4.5 1 3
v -4.5 1 -4
v -4.5 2 4
v -4.5 2 3
v -4.5 6 -3
v -4.5 6 -4
v -4.5 10 4
v -4.5 10 -3
v -4.5 22 4
v -4.5 22 -2
v -4.5 23 4
v -4.5 23 -2
v -3.5 10 4
v -3.5 10 -3
v -3.5 11 2
v -3.5 11 -1
v -3.5 12 2
v -3.5 12 -1
v -3.5 13 2
v -3.5 13 -1
v -3.5 14 2
v -3.5 14 -1
v -3.5 15 4
v -3.5 15 2
v -3.5 15 -1
v -3.5 15 -3
v -2.5 6 -3
v -2.5 6 -4
v -2.5 8 -3
v -2.5 8 -4
v -2.5 22 3
v -2.5 22 -1
v -2.5 23 3
v -2.5 23 -1
v -2.5 23 -2
v -2.5 27 3
v -2.5 27 -2
v -1.5 26 -2
v -1.5 26 -3
v -1.5 27 1
v -1.5 27 -2
v -1.5 28 1
v -1.5 28 -3
v -0.5 28 -1
v -0.5 28 -3
v -0.5 28 -4
v -0.5 29 -1
v -0.5 29 -4
v 0.5 1 4
v 0.5 1 3
v 0.5 3 4
v 0.5 3 3
v 0.5 15 5
v 0.5 15 4
v 0.5 22 5
v 0.5 22 4
v 1.5 0 5
v 1.5 0 4
v 1.5 0 3
v 1.5 1 5
v 1.5 1 4
v 1.5 1 3
v 2.5 15 7
v 2.5 15 6
v 2.5 15 5
v 2.5 19 7
v 2.5 19 6
v 2.5 19 5
v 2.5 20 7
v 2.5 20 6
v 2.5 20 5
v 2.5 22 9
v 2.5 22 8
v 2.5 22 5
v 2.5 23 8
v 2.5 23 6
v 2.5 24 9
v 2.5 24 5
v 3.5 22 3
v 3.5 22 -1
v 3.5 23 3
v 3.5 23 -1
v -3.5 22 3
v -3.5 22 -1
v -3.5 23 3
v -3.5 23 -1
v -1.5 0 5
v -1.5 0 4
v -1.5 0 3
v -1.5 1 5
v -1.5 1 4
v -1.5 1 3
v -0.5 1 4
v -0.5 1 3
v -0.5 3 4
v -0.5 3 3
v -0.5 15 5
v -0.5 15 4
v -0.5 22 5
v -0.5 22 4
v 0.5 28 -1
v 0.5 28 -3
v 0.5 28 -4
v 0.5 29 -1
v 0.5 29 -4
v 1.5 26 -2
v 1.5 26 -3
v 1.5 27 1
v 1.5 27 -2
v 1.5 28 1
v 1.5 28 -3
v 2.5 6 -3
v 2.5 6 -4
v 2.5 8 -3
v 2.5 8 -4
v 2.5 22 3
v 2.5 22 -1
v 2.5 23 3
v 2.5 23 -1
v 2.5 23 -2
v 2.5 27 3
v 2.5 27 -2
v 3.5 10 4
v 3.5 10 -3
v 3.5 15 4
v 3.5 15 -3
v 3.5 19 7
v 3.5 19 6
v 3.5 19 5
v 3.5 20 7
v 3.5 20 6
v 3.5 20 5
v 3.5 22 9
v 3.5 22 8
v 3.5 22 5
v 3.5 23 8
v 3.5 23 6
v 3.5 24 9
v 3.5 24 5
v 4.5 0 5
v 4.5 0 4
v 4.5 0 -4
v 4.5 1 5
v 4.5 1 4
v 4.5 1 3
v 4.5 1 -4
v 4.5 2 4
v 4.5 2 3
v 4.5 6 -3
v 4.5 6 -4
v 4.5 10 4
v 4.5 10 -3
v 4.5 22 4
v 4.5 22 -2
v 4.5 23 4
v 4.5 23 -2
v 5.5 15 7
v 5.5 15 6
v 5.5 15 5
v 5.5 15 4
v 5.5 15 -4
v 5.5 19 7
v 5.5 19 6
v 5.5 19 5
v 5.5 19 4
v 5.5 22 5
v 5.5 22 -4
v 2.5 22 9
v 2.5 24 9
v 3.5 22 9
v 3.5 24 9
v 2.5 15 7
v 2.5 19 7
v 2.5 20 7
v 3.5 19 7
v 3.5 20 7
v 5.5 15 7
v 5.5 19 7
v 2.5 20 6
v 2.5 23 6
v 3.5 20 6
v 3.5 23 6
v -5.5 15 5
v -5.5 22 5
v -4.5 0 5
v -4.5 1 5
v -1.5 0 5
v -1.5 1 5
v -0.5 15 5
v -0.5 22 5
v 0.5 15 5
v 0.5 22 5
v 1.5 0 5
v 1.5 1 5
v 2.5 15 5
v 2.5 19 5
v 2.5 20 5
v 2.5 22 5
v 3.5 19 5
v 3.5 20 5
v 3.5 22 5
v 4.5 0 5
v 4.5 1 5
v 5.5 19 5
v 5.5 22 5
v -4.5 1 4
v -4.5 2 4
v -4.5 10 4
v -4.5 22 4
v -4.5 23 4
v -3.5 10 4
v -3.5 15 4
v -1.5 1 4
v -1.5 2 4
v -1.5 4 4
v -0.5 1 4
v -0.5 3 4
v -0.5 4 4
v -0.5 15 4
v -0.5 22 4
v 0.5 1 4
v 0.5 3 4
v 0.5 4 4
v 0.5 15 4
v 0.5 22 4
v 1.5 1 4
v 1.5 2 4
v 1.5 4 4
v 2.5 15 4
v 3.5 10 4
v 3.5 15 4
v 4.5 1 4
v 4.5 2 4
v 4.5 10 4
v 4.5 22 4
v 4.5 23 4
v -2.5 23 3
v -2.5 27 3
v -1.5 0 3
v -1.5 1 3
v -1.5 24 3
v -1.5 25 3
v -0.5 1 3
v -0.5 3 3
v -0.5 24 3
v -0.5 25 3
v -0.5 26 3
v 0.5 1 3
v 0.5 3 3
v 0.5 24 3
v 0.5 25 3
v 0.5 26 3
v 1.5 0 3
v 1.5 1 3
v 1.5 24 3
v 1.5 25 3
v 2.5 23 3
v 2.5 27 3
v -5.5 11 2
v -5.5 12 2
v -5.5 13 2
v -5.5 14 2
v -5.5 15 2
v -3.5 11 2
v -3.5 12 2
v -3.5 13 2
v -3.5 14 2
v -3.5 15 2
v -1.5 27 1
v -1.5 28 1
v 1.5 27 1
v 1.5 28 1
v -3.5 22 -1
v -3.5 23 -1
v -2.5 22 -1
v -2.5 23 -1
v -0.5 28 -1
v -0.5 29 -1
v 0.5 28 -1
v 0.5 29 -1
v 2.5 22 -1
v 2.5 23 -1
v 3.5 22 -1
v 3.5 23 -1
v 2.5 22 8
v 2.5 23 8
v 3.5 22 8
v 3.5 23 8
v 2.5 22 5
v 2.5 24 5
v 3.5 22 5
v 3.5 24 5
v -3.5 22 3
v -3.5 23 3
v -2.5 22 3
v -2.5 23 3
v 2.5 22 3
v 2.5 23 3
v 3.5 22 3
v 3.5 23 3
v -5.5 11 -1
v -5.5 12 -1
v -5.5 13 -1
v -5.5 14 -1
v -5.5 15 -1
v -3.5 11 -1
v -3.5 12 -1
v -3.5 13 -1
v -3.5 14 -1
v -3.5 15 -1
v -4.5 22 -2
v -4.5 23 -2
v -2.5 22 -2
v -2.5 23 -2
v -2.5 27 -2
v -1.5 26 -2
v -1.5 27 -2
v 1.5 26 -2
v 1.5 27 -2
v 2.5 22 -2
v 2.5 23 -2
v 2.5 27 -2
v 4.5 22 -2
v 4.5 23 -2
v -4.5 6 -3
v -4.5 10 -3
v -3.5 10 -3
v -3.5 15 -3
v -2.5 6 -3
v -2.5 8 -3
v -1.5 26 -3
v -1.5 28 -3
v -0.5 28 -3
v 0.5 28 -3
v 1.5 26 -3
v 1.5 28 -3
v 2.5 6 -3
v 2.5 8 -3
v 3.5 10 -3
v 3.5 15 -3
v 4.5 6 -3
v 4.5 10 -3
v -5.5 15 -4
v -5.5 22 -4
v -4.5 0 -4
v -4.5 1 -4
v -4.5 6 -4
v -2.5 6 -4
v -2.5 8 -4
v -0.5 28 -4
v -0.5 29 -4
v 0.5 28 -4
v 0.5 29 -4
v 2.5 6 -4
v 2.5 8 -4
v 4.5 0 -4
v 4.5 1 -4
v 4.5 6 -4
v 5.5 15 -4
v 5.5 22 -4
v -4.5 0 5
v -1.5 0 5
v 1.5 0 5
v 4.5 0 5
v -4.5 0 4
v -1.5 0 4
v 1.5 0 4
v 4.5 0 4
v -3.5 0 3
v -1.5 0 3
v 1.5 0 3
v 3.5 0 3
v -3.5 0 -3
v 3.5 0 -3
v -4.5 0 -4
v 4.5 0 -4
v -1.5 1 4
v -0.5 1 4
v 0.5 1 4
v 1.5 1 4
v -1.5 1 3
v -0.5 1 3
v 0.5 1 3
v 1.5 1 3
v -0.5 3 4
v 0.5 3 4
v -0.5 3 3
v 0.5 3 3
v -5.5 11 2
v -3.5 11 2
v -5.5 11 -1
v -3.5 11 -1
v 2.5 15 7
v 5.5 15 7
v 2.5 15 6
v 5.5 15 6
v -5.5 15 5
v -0.5 15 5
v 0.5 15 5
v 2.5 15 5
v 5.5 15 5
v -3.5 15 4
v -0.5 15 4
v 0.5 15 4
v 2.5 15 4
v 3.5 15 4
v 5.5 15 4
v -5.5 15 2
v -3.5 15 2
v -5.5 15 -1
v -3.5 15 -1
v -3.5 15 -3
v 3.5 15 -3
v -5.5 15 -4
v 5.5 15 -4
v 2.5 22 9
v 3.5 22 9
v 2.5 22 8
v 3.5 22 8
v 2.5 23 8
v 3.5 23 8
v 2.5 23 6
v 3.5 23 6
v -1.5 26 -2
v 1.5 26 -2
v -1.5 26 -3
v 1.5 26 -3
v -0.5 28 -3
v 0.5 28 -3
v -0.5 28 -4
v 0.5 28 -4
v -4.5 1 5
v -1.5 1 5
v 1.5 1 5
v 4.5 1 5
v -4.5 1 4
v -1.5 1 4
v 1.5 1 4
v 4.5 1 4
v -4.5 6 -3
v -2.5 6 -3
v 2.5 6 -3
v 4.5 6 -3
v -4.5 6 -4
v -2.5 6 -4
v 2.5 6 -4
v 4.5 6 -4
v -2.5 8 -3
v 2.5 8 -3
v -2.5 8 -4
v 2.5 8 -4
v -4.5 10 4
v -3.5 10 4
v 3.5 10 4
v 4.5 10 4
v -4.5 10 -3
v -3.5 10 -3
v 3.5 10 -3
v 4.5 10 -3
v 3.5 19 7
v 5.5 19 7
v 3.5 19 6
v 5.5 19 6
v 3.5 19 5
v 5.5 19 5
v 2.5 20 7
v 3.5 20 7
v 2.5 20 6
v 3.5 20 6
v -5.5 22 5
v -0.5 22 5
v 0.5 22 5
v 2.5 22 5
v 3.5 22 5
v 5.5 22 5
v -4.5 22 4
v -0.5 22 4
v 0.5 22 4
v 4.5 22 4
v -3.5 22 3
v -2.5 22 3
v 2.5 22 3
v 3.5 22 3
v -3.5 22 -1
v -2.5 22 -1
v 2.5 22 -1
v 3.5 22 -1
v -4.5 22 -2
v -2.5 22 -2
v 2.5 22 -2
v 4.5 22 -2
v -5.5 22 -4
v 5.5 22 -4
v -4.5 23 4
v 4.5 23 4
v -3.5 23 3
v -2.5 23 3
v 2.5 23 3
v 3.5 23 3
v -3.5 23 -1
v -2.5 23 -1
v 2.5 23 -1
v 3.5 23 -1
v -4.5 23 -2
v -2.5 23 -2
v 2.5 23 -2
v 4.5 23 -2
v 2.5 24 9
v 3.5 24 9
v 2.5 24 5
v 3.5 24 5
v -2.5 27 3
v 2.5 27 3
v -1.5 27 1
v 1.5 27 1
v -2.5 27 -2
v -1.5 27 -2
v 1.5 27 -2
v 2.5 27 -2
v -1.5 28 1
v 1.5 28 1
v -0.5 28 -1
v 0.5 28 -1
v -1.5 28 -3
v -0.5 28 -3
v 0.5 28 -3
v 1.5 28 -3
v -0.5 29 -1
v 0.5 29 -1
v -0.5 29 -4
v 0.5 29 -4

# faces
f 3/1/1 2/1/1 1/1/1
f 4/1/1 2/1/1 3/1/1
f 5/3/1 4/3/1 3/3/1
f 6/3/1 4/3/1 5/3/1
f 7/5/1 6/5/1 5/5/1
f 8/5/1 6/5/1 7/5/1
f 10/3/1 8/3/1 7/3/1
f 11/3/1 8/3/1 10/3/1
f 13/3/1 11/3/1 10/3/1
f 13/3/1 12/3/1 11/3/1
f 13/3/1 10/3/1 9/3/1
f 14/3/1 12/3/1 13/3/1
f 18/3/1 16/3/1 15/3/1
f 19/2/1 17/2/1 16/2/1
f 19/3/1 16/3/1 18/3/1
f 20/2/1 17/2/1 19/2/1
f 21/2/1 17/2/1 20/2/1
f 22/2/1 20/2/1 19/2/1
f 23/3/1 21/3/1 20/3/1
f 23/2/1 20/2/1 22/2/1
f 24/3/1 23/3/1 22/3/1
f 24/3/1 21/3/1 23/3/1
f 25/3/1 21/3/1 24/3/1
f 26/3/1 24/3/1 22/3/1
f 27/3/1 24/3/1 26/3/1
f 30/5/1 29/5/1 28/5/1
f 31/5/1 29/5/1 30/5/1
f 34/3/1 33/3/1 32/3/1
f 35/3/1 33/3/1 34/3/1
f 36/3/1 34/3/1 32/3/1
f 37/3/1 33/3/1 35/3/1
f 38/3/1 36/3/1 32/3/1
f 39/3/1 33/3/1 37/3/1
f 40/3/1 38/3/1 32/3/1
f 41/3/1 33/3/1 39/3/1
f 42/3/1 40/3/1 32/3/1
f 43/3/1 40/3/1 42/3/1
f 44/3/1 33/3/1 41/3/1
f 45/3/1 33/3/1 44/3/1
f 48/3/1 47/3/1 46/3/1
f 49/3/1 47/3/1 48/3/1
f 52/3/1 51/3/1 50/3/1
f 53/3/1 51/3/1 52/3/1
f 55/3/1 53/3/1 52/3/1
f 55/3/1 54/3/1 53/3/1
f 56/3/1 54/3/1 55/3/1
f 60/3/1 58/3/1 57/3/1
f 61/3/1 60/3/1 59/3/1
f 62/3/1 58/3/1 60/3/1
f 62/3/1 60/3/1 61/3/1
f 66/3/1 64/3/1 63/3/1
f 66/3/1 65/3/1 64/3/1
f 67/3/1 65/3/1 66/3/1
f 70/2/1 69/2/1 68/2/1
f 71/2/1 69/2/1 70/2/1
f 74/3/1 73/3/1 72/3/1
f 75/3/1 73/3/1 74/3/1
f 79/3/1 77/3/1 76/3/1
f 80/2/1 78/2/1 77/2/1
f 80/3/1 77/3/1 79/3/1
f 81/2/1 78/2/1 80/2/1
f 85/1/1 83/1/1 82/1/1
f 86/3/1 84/3/1 83/3/1
f 86/1/1 83/1/1 85/1/1
f 87/3/1 84/3/1 86/3/1
f 88/5/1 86/5/1 85/5/1
f 88/5/1 87/5/1 86/5/1
f 89/5/1 87/5/1 88/5/1
f 90/5/1 87/5/1 89/5/1
f 93/7/1 90/7/1 89/7/1
f 94/7/1 92/7/1 91/7/1
f 95/7/1 93/7/1 89/7/1
f 96/7/1 94/7/1 91/7/1
f 96/7/1 95/7/1 94/7/1
f 97/7/1 93/7/1 95/7/1
f 97/7/1 95/7/1 96/7/1
f 100/5/1 99/5/1 98/5/1
f 101/5/1 99/5/1 100/5/1
f 102/5/2 103/5/2 104/5/2
f 104/5/2 103/5/2 105/5/2
f 106/3/2 107/3/2 109/3/2
f 107/2/2 108/2/2 110/2/2
f 109/3/2 107/3/2 110/3/2
f 110/2/2 108/2/2 111/2/2
f 112/2/2 113/2/2 114/2/2
f 114/2/2 113/2/2 115/2/2
f 116/3/2 117/3/2 118/3/2
f 118/3/2 117/3/2 119/3/2
f 120/3/2 121/3/2 123/3/2
f 121/3/2 122/3/2 123/3/2
f 123/3/2 122/3/2 124/3/2
f 125/3/2 126/3/2 128/3/2
f 127/3/2 128/3/2 129/3/2
f 128/3/2 126/3/2 130/3/2
f 129/3/2 128/3/2 130/3/2
f 131/3/2 132/3/2 133/3/2
f 133/3/2 132/3/2 134/3/2
f 135/3/2 136/3/2 137/3/2
f 137/3/2 136/3/2 138/3/2
f 137/3/2 138/3/2 140/3/2
f 138/3/2 139/3/2 140/3/2
f 140/3/2 139/3/2 141/3/2
f 142/3/2 143/3/2 144/3/2
f 144/3/2 143/3/2 145/3/2
f 146/5/2 147/5/2 149/5/2
f 147/5/2 148/5/2 149/5/2
f 149/5/2 148/5/2 150/5/2
f 150/5/2 148/5/2 151/5/2
f 150/7/2 151/7/2 154/7/2
f 152/7/2 153/7/2 155/7/2
f 150/7/2 154/7/2 156/7/2
f 152/7/2 155/7/2 157/7/2
f 155/7/2 156/7/2 157/7/2
f 156/7/2 154/7/2 158/7/2
f 157/7/2 156/7/2 158/7/2
f 159/3/2 160/3/2 162/3/2
f 160/2/2 161/2/2 163/2/2
f 162/3/2 160/3/2 163/3/2
f 163/2/2 161/2/2 164/2/2
f 164/2/2 161/2/2 165/2/2
f 163/2/2 164/2/2 166/2/2
f 164/3/2 165/3/2 167/3/2
f 166/2/2 164/2/2 167/2/2
f 166/3/2 167/3/2 168/3/2
f 167/3/2 165/3/2 168/3/2
f 168/3/2 165/3/2 169/3/2
f 166/3/2 168/3/2 170/3/2
f 170/3/2 168/3/2 171/3/2
f 172/5/2 173/5/2 174/5/2
f 174/5/2 173/5/2 175/5/2
f 176/1/2 177/1/2 181/1/2
f 177/3/2 178/3/2 182/3/2
f 181/1/2 177/1/2 182/1/2
f 178/5/2 179/5/2 183/5/2
f 182/3/2 178/3/2 183/3/2
f 179/3/2 180/3/2 184/3/2
f 183/5/2 179/5/2 184/5/2
f 183/3/2 184/3/2 185/3/2
f 184/3/2 180/3/2 186/3/2
f 185/3/2 184/3/2 186/3/2
f 189/7/3 188/7/3 187/7/3
f 190/7/3 188/7/3 189/7/3
f 194/1/3 192/1/3 191/1/3
f 194/5/3 193/5/3 192/5/3
f 195/5/3 193/5/3 194/5/3
f 196/1/3 194/1/3 191/1/3
f 197/1/3 194/1/3 196/1/3
f 200/7/3 199/7/3 198/7/3
f 201/7/3 199/7/3 200/7/3
f 206/3/3 205/3/3 204/3/3
f 207/3/3 205/3/3 206/3/3
f 208/3/3 203/3/3 202/3/3
f 209/3/3 203/3/3 208/3/3
f 214/3/3 211/3/3 210/3/3
f 215/3/3 211/3/3 214/3/3
f 216/3/3 211/3/3 215/3/3
f 217/3/3 211/3/3 216/3/3
f 221/3/3 213/3/3 212/3/3
f 222/3/3 213/3/3 221/3/3
f 223/3/3 220/3/3 219/3/3
f 223/3/3 219/3/3 218/3/3
f 224/3/3 220/3/3 223/3/3
f 230/3/3 227/3/3 226/3/3
f 232/2/3 226/2/3 225/2/3
f 233/3/3 231/3/3 230/3/3
f 233/2/3 226/2/3 232/2/3
f 233/3/3 230/3/3 226/3/3
f 234/3/3 231/3/3 233/3/3
f 235/2/3 233/2/3 232/2/3
f 235/2/3 234/2/3 233/2/3
f 236/2/3 234/2/3 235/2/3
f 237/3/3 231/3/3 234/3/3
f 237/2/3 234/2/3 236/2/3
f 238/3/3 231/3/3 237/3/3
f 239/5/3 229/5/3 228/5/3
f 241/2/3 238/2/3 237/2/3
f 241/2/3 239/2/3 238/2/3
f 241/2/3 237/2/3 236/2/3
f 242/2/3 239/2/3 241/2/3
f 243/2/3 239/2/3 242/2/3
f 244/5/3 229/5/3 239/5/3
f 244/2/3 239/2/3 243/2/3
f 245/2/3 241/2/3 240/2/3
f 245/2/3 242/2/3 241/2/3
f 246/2/3 242/2/3 245/2/3
f 247/3/3 243/3/3 242/3/3
f 247/2/3 242/2/3 246/2/3
f 248/3/3 247/3/3 246/3/3
f 248/3/3 243/3/3 247/3/3
f 249/3/3 248/3/3 246/3/3
f 250/3/3 248/3/3 249/3/3
f 251/2/3 246/2/3 245/2/3
f 252/3/3 249/3/3 246/3/3
f 252/2/3 246/2/3 251/2/3
f 253/3/3 249/3/3 252/3/3
f 254/5/3 229/5/3 244/5/3
f 255/5/3 229/5/3 254/5/3
f 260/3/3 257/3/3 256/3/3
f 261/3/3 257/3/3 260/3/3
f 262/3/3 259/3/3 258/3/3
f 264/3/3 260/3/3 256/3/3
f 264/5/3 261/5/3 260/5/3
f 265/3/3 257/3/3 261/3/3
f 265/5/3 261/5/3 264/5/3
f 266/3/3 257/3/3 265/3/3
f 267/3/3 263/3/3 262/3/3
f 267/3/3 262/3/3 258/3/3
f 268/3/3 263/3/3 267/3/3
f 269/3/3 264/3/3 256/3/3
f 269/3/3 265/3/3 264/3/3
f 270/5/3 266/5/3 265/5/3
f 270/3/3 265/3/3 269/3/3
f 271/3/3 257/3/3 266/3/3
f 271/5/3 266/5/3 270/5/3
f 272/3/3 267/3/3 258/3/3
f 273/3/3 267/3/3 272/3/3
f 274/5/3 270/5/3 269/5/3
f 274/3/3 269/3/3 256/3/3
f 275/3/3 271/3/3 270/3/3
f 275/5/3 270/5/3 274/5/3
f 276/3/3 274/3/3 256/3/3
f 276/3/3 275/3/3 274/3/3
f 277/3/3 257/3/3 271/3/3
f 277/3/3 275/3/3 276/3/3
f 277/3/3 271/3/3 275/3/3
f 283/1/3 279/1/3 278/1/3
f 284/3/3 280/3/3 279/3/3
f 284/1/3 279/1/3 283/1/3
f 285/5/3 281/5/3 280/5/3
f 285/3/3 280/3/3 284/3/3
f 286/3/3 282/3/3 281/3/3
f 286/5/3 281/5/3 285/5/3
f 287/3/3 282/3/3 286/3/3
f 290/3/3 289/3/3 288/3/3
f 291/3/3 289/3/3 290/3/3
f 294/5/3 293/5/3 292/5/3
f 295/5/3 293/5/3 294/5/3
f 298/3/3 297/3/3 296/3/3
f 299/3/3 297/3/3 298/3/3
f 302/5/3 301/5/3 300/5/3
f 303/5/3 301/5/3 302/5/3
f 304/7/4 305/7/4 306/7/4
f 306/7/4 305/7/4 307/7/4
f 308/7/4 309/7/4 310/7/4
f 310/7/4 309/7/4 311/7/4
f 312/5/4 313/5/4 314/5/4
f 314/5/4 313/5/4 315/5/4
f 316/5/4 317/5/4 318/5/4
f 318/5/4 317/5/4 319/5/4
f 320/1/4 321/1/4 325/1/4
f 321/3/4 322/3/4 326/3/4
f 325/1/4 321/1/4 326/1/4
f 322/5/4 323/5/4 327/5/4
f 326/3/4 322/3/4 327/3/4
f 323/3/4 324/3/4 328/3/4
f 327/5/4 323/5/4 328/5/4
f 328/3/4 324/3/4 329/3/4
f 330/5/4 331/5/4 332/5/4
f 332/5/4 331/5/4 333/5/4
f 332/3/4 333/3/4 335/3/4
f 333/3/4 334/3/4 335/3/4
f 335/3/4 334/3/4 336/3/4
f 332/3/4 335/3/4 337/3/4
f 332/3/4 337/3/4 339/3/4
f 337/3/4 338/3/4 339/3/4
f 339/3/4 338/3/4 340/3/4
f 340/3/4 338/3/4 341/3/4
f 339/5/4 340/5/4 342/5/4
f 342/5/4 340/5/4 343/5/4
f 344/3/4 345/3/4 346/3/4
f 344/3/4 346/3/4 348/3/4
f 346/3/4 347/3/4 348/3/4
f 348/3/4 347/3/4 349/3/4
f 350/3/4 351/3/4 352/3/4
f 350/3/4 352/3/4 353/3/4
f 350/3/4 353/3/4 354/3/4
f 354/3/4 353/3/4 355/3/4
f 349/3/4 347/3/4 357/3/4
f 357/3/4 347/3/4 358/3/4
f 356/3/4 357/3/4 358/3/4
f 358/3/4 347/3/4 359/3/4
f 356/3/4 358/3/4 360/3/4
f 360/3/4 358/3/4 361/3/4
f 365/3/4 366/3/4 367/3/4
f 369/3/4 370/3/4 371/3/4
f 371/3/4 370/3/4 372/3/4
f 365/3/4 367/3/4 373/3/4
f 367/3/4 368/3/4 373/3/4
f 373/3/4 368/3/4 374/3/4
f 364/2/4 365/2/4 375/2/4
f 365/3/4 373/3/4 376/3/4
f 375/2/4 365/2/4 376/2/4
f 376/3/4 373/3/4 377/3/4
f 362/3/4 363/3/4 378/3/4
f 378/3/4 363/3/4 379/3/4
f 384/3/5 381/3/5 380/3/5
f 385/3/5 381/3/5 384/3/5
f 386/3/5 383/3/5 382/3/5
f 387/3/5 383/3/5 386/3/5
f 388/2/5 385/2/5 384/2/5
f 389/2/5 385/2/5 388/2/5
f 390/2/5 387/2/5 386/2/5
f 391/2/5 387/2/5 390/2/5
f 392/3/5 389/3/5 388/3/5
f 392/2/5 388/2/5 384/2/5
f 392/3/5 391/3/5 390/3/5
f 392/3/5 390/3/5 389/3/5
f 393/2/5 387/2/5 391/2/5
f 393/3/5 391/3/5 392/3/5
f 394/2/5 392/2/5 384/2/5
f 394/2/5 393/2/5 392/2/5
f 395/2/5 387/2/5 393/2/5
f 395/2/5 393/2/5 394/2/5
f 400/2/5 397/2/5 396/2/5
f 401/2/5 397/2/5 400/2/5
f 402/2/5 399/2/5 398/2/5
f 403/2/5 399/2/5 402/2/5
f 406/2/5 405/2/5 404/2/5
f 407/2/5 405/2/5 406/2/5
f 410/1/5 409/1/5 408/1/5
f 411/1/5 409/1/5 410/1/5
f 414/1/5 413/1/5 412/1/5
f 415/1/5 413/1/5 414/1/5
f 419/3/5 415/3/5 414/3/5
f 420/3/5 415/3/5 419/3/5
f 421/3/5 417/3/5 416/3/5
f 422/3/5 417/3/5 421/3/5
f 423/3/5 419/3/5 418/3/5
f 424/5/5 420/5/5 419/5/5
f 424/3/5 419/3/5 423/3/5
f 425/5/5 420/5/5 424/5/5
f 426/5/5 420/5/5 425/5/5
f 427/3/5 421/3/5 416/3/5
f 428/3/5 421/3/5 427/3/5
f 431/3/5 430/3/5 429/3/5
f 432/3/5 426/3/5 425/3/5
f 433/3/5 431/3/5 429/3/5
f 433/3/5 432/3/5 431/3/5
f 434/3/5 426/3/5 432/3/5
f 434/3/5 432/3/5 433/3/5
f 437/7/5 436/7/5 435/7/5
f 438/7/5 436/7/5 437/7/5
f 441/7/5 440/7/5 439/7/5
f 442/7/5 440/7/5 441/7/5
f 445/3/5 444/3/5 443/3/5
f 446/3/5 444/3/5 445/3/5
f 449/3/5 448/3/5 447/3/5
f 450/3/5 448/3/5 449/3/5
f 451/3/6 452/3/6 455/3/6
f 455/3/6 452/3/6 456/3/6
f 453/3/6 454/3/6 457/3/6
f 457/3/6 454/3/6 458/3/6
f 459/3/6 460/3/6 463/3/6
f 463/3/6 460/3/6 464/3/6
f 461/3/6 462/3/6 465/3/6
f 465/3/6 462/3/6 466/3/6
f 467/3/6 468/3/6 469/3/6
f 469/3/6 468/3/6 470/3/6
f 471/3/6 472/3/6 475/3/6
f 475/3/6 472/3/6 476/3/6
f 473/3/6 474/3/6 477/3/6
f 477/3/6 474/3/6 478/3/6
f 479/1/6 480/1/6 481/1/6
f 481/1/6 480/1/6 482/1/6
f 481/3/6 482/3/6 483/3/6
f 483/3/6 482/3/6 484/3/6
f 485/5/6 486/5/6 487/5/6
f 487/5/6 486/5/6 488/5/6
f 489/3/6 490/3/6 495/3/6
f 495/3/6 490/3/6 496/3/6
f 493/3/6 494/3/6 497/3/6
f 491/3/6 492/3/6 497/3/6
f 492/3/6 493/3/6 497/3/6
f 497/3/6 494/3/6 498/3/6
f 499/3/6 500/3/6 503/3/6
f 503/3/6 500/3/6 504/3/6
f 501/3/6 502/3/6 505/3/6
f 505/3/6 502/3/6 506/3/6
f 489/3/6 495/3/6 507/3/6
f 498/3/6 494/3/6 510/3/6
f 508/3/6 509/3/6 511/3/6
f 509/3/6 510/3/6 511/3/6
f 507/3/6 508/3/6 511/3/6
f 489/3/6 507/3/6 511/3/6
f 510/3/6 494/3/6 512/3/6
f 511/3/6 510/3/6 512/3/6
f 513/5/6 514/5/6 515/5/6
f 515/5/6 514/5/6 516/5/6
f 516/5/6 514/5/6 517/5/6
f 517/5/6 514/5/6 518/5/6
f 513/5/6 515/5/6 519/5/6
f 518/5/6 514/5/6 522/5/6
f 519/5/6 520/5/6 523/5/6
f 513/5/6 519/5/6 523/5/6
f 523/5/6 520/5/6 524/5/6
f 521/5/6 522/5/6 525/5/6
f 522/5/6 514/5/6 526/5/6
f 525/5/6 522/5/6 526/5/6
f 527/7/6 528/7/6 529/7/6
f 529/7/6 528/7/6 530/7/6
f 531/3/6 532/3/6 533/3/6
f 533/3/6 532/3/6 534/3/6
f 531/3/6 533/3/6 535/3/6
f 535/3/6 533/3/6 536/3/6
f 534/3/6 532/3/6 537/3/6
f 537/3/6 532/3/6 538/3/6
f 539/3/6 540/3/6 541/3/6
f 541/3/6 540/3/6 542/3/6
f 539/3/6 541/3/6 543/3/6
f 543/3/6 541/3/6 544/3/6
f 542/3/6 540/3/6 545/3/6
f 545/3/6 540/3/6 546/3/6
f 547/3/6 548/3/6 549/3/6
f 549/3/6 548/3/6 550/3/6
